<svg xmlns="http://www.w3.org/2000/svg"
     viewBox="-25 -25 95 100"
     aria-role="presentation"
     focusable="false"
     width="30px"
     height="50px"
     style="color-scheme: light dark;"
     preserveAspectRatio="xMidYMid meet">
  <style>
    path {
      fill:rgb(144, 144, 144);
    }

    @media (prefers-color-scheme: dark) {
      path {
        fill:#2d2d2d;
      }
    }
  </style>
  <path fill-rule="evenodd" d="M36.15 0c-.18.02-1.76.3-1.95.33l-19.7 3.7c-.58.13-1.03.32-1.37.6a2.1 2.1 0 0 0-.74 1.36c-.02.12-.05.36-.05.72v26.81c0 1.18-.9 2.16-2.1 2.38l-5.27.86A6 6 0 0 0 0 42.57C0 45.63 2.6 48 5.64 48c.37 0 .74-.04 1.11-.1l1.82-.36a7.13 7.13 0 0 0 5.8-7.08V17.25c0-1.22.4-1.54 1.42-1.78 0 0 17.52-3.52 18.37-3.68.22-.04.43-.07.61-.07.78 0 1.17.4 1.17 1.36v15.47c0 1.18-.89 2.16-2.1 2.39l-4.86.95c-3.1.55-5.35 2.97-5.35 5.77 0 3.04 2.8 5.4 6.08 5.4.4 0 .8-.03 1.2-.1l1.96-.35c4.23-1.2 5.13-5.07 5.13-7.75v-33C38 .74 37.41 0 36.36 0h-.2z"/>
</svg>