<?xml version="1.0" standalone="no"?>
<!DOCTYPE svg PUBLIC "-//W3C//DTD SVG 20010904//EN"
 "http://www.w3.org/TR/2001/REC-SVG-20010904/DTD/svg10.dtd">
<svg version="1.0" xmlns="http://www.w3.org/2000/svg"
 width="1065.000000pt" height="1065.000000pt" viewBox="0 0 1065.000000 1065.000000"
 preserveAspectRatio="xMidYMid meet">
<metadata>
Created by potrace 1.14, written by Peter Selinger 2001-2017
</metadata>
<g transform="translate(0.000000,1065.000000) scale(0.100000,-0.100000)"
fill="#000000" stroke="none">
<path d="M125 9801 c-49 -17 -74 -36 -96 -74 l-23 -42 -1 -4335 c0 -2480 4
-4355 9 -4383 12 -67 64 -113 138 -122 29 -3 616 -5 1303 -3 1146 3 1252 4
1280 20 40 22 62 49 73 91 5 19 9 269 8 588 -1 538 -2 555 -21 589 -12 19 -36
43 -55 55 -34 19 -53 20 -557 23 l-523 3 -1 32 c-1 42 -1 6134 0 6170 l1 27
504 0 c277 0 518 3 536 7 40 7 104 69 109 103 7 47 6 1125 -1 1151 -13 45 -59
87 -108 98 -51 12 -2542 14 -2575 2z"/>
<path d="M7936 9800 c-41 -13 -84 -58 -96 -99 -6 -22 -10 -254 -10 -583 0
-606 0 -605 64 -651 l31 -22 533 -3 532 -3 0 -3114 0 -3114 -527 -3 c-505 -3
-529 -4 -560 -23 -17 -11 -40 -33 -50 -50 -17 -28 -18 -65 -18 -610 0 -657 -4
-622 82 -664 l44 -21 1287 2 c1265 3 1288 3 1317 23 41 27 53 43 65 88 15 53
16 8689 1 8744 -13 49 -58 92 -107 104 -50 11 -2549 10 -2588 -1z"/>
<path d="M3524 5839 c-46 -13 -91 -69 -99 -121 -3 -24 -5 -560 -3 -1193 3
-1093 4 -1151 21 -1177 45 -65 23 -63 556 -66 l483 -3 -6 -57 c-10 -91 -15
-111 -48 -212 -38 -118 -104 -243 -174 -336 -66 -87 -207 -224 -296 -287 -74
-53 -233 -137 -260 -137 -9 0 -19 -4 -22 -9 -3 -5 -38 -17 -78 -26 -87 -21
-119 -42 -144 -92 -17 -35 -19 -75 -20 -578 -1 -585 1 -606 52 -650 44 -38 95
-46 188 -29 251 44 575 139 756 221 115 52 253 120 305 151 72 42 188 114 195
122 3 3 28 21 55 39 236 163 453 385 627 641 58 86 85 132 160 270 108 200
209 532 243 798 3 23 8 61 12 85 10 65 10 2497 0 2538 -12 49 -56 95 -103 108
-49 14 -2354 14 -2400 0z"/>
</g>
</svg>
